<svg xmlns="http://www.w3.org/2000/svg" fill-rule="evenodd" clip-rule="evenodd" image-rendering="optimizeQuality"
     shape-rendering="geometricPrecision" text-rendering="geometricPrecision" viewBox="0 0 500 512.24">
    <path fill="#0057b8"
          d="M65.5 0h315.71c6.94 0 12.61 5.68 12.61 12.63v157.15a173.11 173.11 0 0 0-78.16-18.61c-23.45 0-45.88 4.68-66.32 13.18A172.74 172.74 0 0 0 193.06 202a173.89 173.89 0 0 0-43.51 172.45h-88.7c-19 0-34.53 15.55-34.53 34.53 0 19 15.55 34.54 34.53 34.54h128.59l3.6 3.7a173.41 173.41 0 0 0 26.51 21.73H62.16C27.97 468.95 0 440.99 0 406.8V65.51C0 29.48 29.47 0 65.5 0zm253.98 185.1c38.15 0 74.59 15.1 101.56 42.06a143.95 143.95 0 0 1 36.11 142.62 142.78 142.78 0 0 1-14.59 33.02l55.63 60.63a6.9 6.9 0 0 1-.4 9.71l-40.85 37.3a6.86 6.86 0 0 1-9.69-.43l-53.21-58.53a142.8 142.8 0 0 1-74.56 20.89c-38.15 0-74.59-15.1-101.56-42.07a143.87 143.87 0 0 1-31.17-46.64c-22.26-53.62-9.61-115.7 31.19-156.48a143.27 143.27 0 0 1 101.54-42.08zm81.04 62.59a114.94 114.94 0 0 0-124.89-24.9c-76.44 31.65-94 130.21-37.21 186.97 32.77 32.69 82.24 42.57 124.9 24.91a114.62 114.62 0 0 0 70.76-105.94 114.2 114.2 0 0 0-8.65-43.83 115.2 115.2 0 0 0-24.91-37.21zM58.17 416.08h106.68l1.9 2.92c2.34 3.48 4.79 6.87 7.34 10.16H58.17a5.03 5.03 0 0 1-5.02-5.01v-3.05a5.04 5.04 0 0 1 5.02-5.02zm0-25.9h92.97c1.87 4.43 3.95 8.8 6.23 13.08h-99.2a5.03 5.03 0 0 1-5.02-5.01v-3.05a5.02 5.02 0 0 1 5.02-5.02zm19.5-339.05h10.91c5.59 0 10.15 3.69 10.15 8.21v257.5c0 4.51-4.57 8.2-10.15 8.2H77.67c-5.58 0-10.14-3.69-10.14-8.2V59.33c0-4.51 4.56-8.2 10.14-8.2z"/>
</svg>
