<svg xmlns="http://www.w3.org/2000/svg" xml:space="preserve" viewBox="0 0 1466.7 1066.7"><defs><clipPath id="a" clipPathUnits="userSpaceOnUse"><path d="M1048.4 5974.5h1129.5v123.2H1048.4Z"/></clipPath><clipPath id="b" clipPathUnits="userSpaceOnUse"><path d="M1471.3 6583.8h150v153h-150Z"/></clipPath><clipPath id="c" clipPathUnits="userSpaceOnUse"><path d="M1054.6 4314h1370.6v121.7H1054.6Z"/></clipPath><clipPath id="d" clipPathUnits="userSpaceOnUse"><path d="M6144.4 2638.7h1981.8V5615H6144.4Z"/></clipPath><clipPath id="e" clipPathUnits="userSpaceOnUse"><path d="M6144.4 2638.7h1233v2279h-1233Z"/></clipPath><clipPath id="f" clipPathUnits="userSpaceOnUse"><path d="M8795.4 3462.4h1358.5v1937.8H8795.4Z"/></clipPath><clipPath id="g" clipPathUnits="userSpaceOnUse"><path d="M3427.4 1838.3h1016.4V2988H3427.4Z"/></clipPath><clipPath id="h" clipPathUnits="userSpaceOnUse"><path d="M3268.8 3177.4H5567v152H3268.8Z"/></clipPath><clipPath id="i" clipPathUnits="userSpaceOnUse"><path d="M4313.8 1823.3h78.2v1409.2h-78.3z"/></clipPath></defs><path fill="#f7e2e7" d="M1213.6 959.9c-8 0-16-.3-24.1-1-31-3-62.2-4.4-93-8.5-70.6-9.5-141.2-10-212.3-10l-84.7-.3c-41 0-82.2.5-123.2 3.3-64 4.3-128 5-192.2 5h-30.9c-35.4 0-70.8 2.1-106.2 3.7-35.6 1.5-70.2 4-105.6 4h-9.6c-35.4-.5-89.2-10.8-114.5-37-15-15.7-13-53.2 2-68.2a74 74 0 0 1 25.8-14.9c24.6-9 49.6-9 75.3-9.1h1c17.7 0 36.1 3.6 53.1 8.5 15.5 4.5 31.3 6.1 47 9a231 231 0 0 0 66.3 2c22.8-2.5 45.8-3.6 68.7-5.6l14.3-1.4c2.7 1.7 5.5 3.2 8.4 4.6 10.2 5 21.2 10 32.7 14.5a92 92 0 0 0 13.7 9.6c10.7 6 24.6 7.9 38.5 7.9 10.7 0 21.4-1.1 30.5-2.1 19.7-2.2 39-8.1 56.5-17.3 11.4-6 21.6-12.9 20-26.5a45 45 0 0 0-2.7-11 1951.7 1951.7 0 0 1 36.7-.3l53.7.1h43.6c49.8 0 99.5.5 149 5 15.5 1.4 30.7.6 45.9 4a263.3 263.3 0 0 0 69.3 7.5h17c23.9 0 47.7-.5 71.5-.6h9.8c5.7 0 13 0 21.4.2 1 8 2.2 16 4 24l27.7.2c1.9-7.7 3.9-15.5 6-23.2 74 3 176 13.6 166 50.7-5.1 19-34.8 43.7-51.5 51.7-21 10-44 16-67.1 18-19.6 1.7-38.6 3.5-57.8 3.5"/><path fill="#efbfa5" d="M149.2 433.2c3.1-1.9 8-2.4 11.8-4.5 2-1 1.9-5.4 6-3.4 1.5.8 4 3 7 4.4a30 30 0 0 0 15.7 1.7c21-2.7 42.2-5 63.5-5.3 1.2 0 2.4 0 3.5-.6 1.9-1.1 2.3-3.2 3-5.2 3-9.3 6.2-18.3 10.9-27 4.2-7.6 9-14.8 16.2-19.9 7.3-5 16.4-7 24.4-3.7 6 2.5 10.8 7.3 11.5 13.9 1.8 16.3-14 27-23.8 37.4a562.4 562.4 0 0 1-26.8 27.3 11.1 11.1 0 0 1-3.9 2.7c-1.5.5-3.3.4-5 .3-21-2.2-41.6-4.8-62.7-2.3-5.8.6-11-1-16.4.3-3.6.9-5.6 4.1-9 5.5a28.3 28.3 0 0 1-10.6 2.6c-7.8-.2-16-7.5-18-15.2-1.3-5 .1-7.4 2.7-9"/><path fill="#353a85" d="M299.2 415.2c-11.5-5.6-23.8-9.4-35-16 5.2-9.7 21-49.8 23.5-54.5 9.7-18.1 12-26 23.9-35 25.4-19.2 52.1-2.7 48.3 27.3-4 32.6-24 59.1-45.2 82.7-.5.5-1.1 1-1.8 1.1-.8.2-1.9-.1-2.7-.6l-11-5"/><path fill="#efbfa5" d="M291.7 867.9c-4.2.1-8.2-.8-12.3-1.2-2.1-40.7 1.7-83.5 3.4-124.4 10.5.5 21 1 31.4 1.7a366 366 0 0 0-15.5 67.3c-.5 3.6-6.4 56.6-7 56.6"/><path fill="#292949" d="M278.1 858.8c-2.5-.4-4 .7-5.8 2.3-1 .9-1.7 2.2-2.9 2.8-1.2.7-2.4.8-3.8 1-7.6.7-25 .4-15.7 13 8.4 11.5 30.8 7 43.7 3.8.9-.2 1.8-.3 2.4-1a6 6 0 0 0 1.3-2.5c1.5-5.4 3.5-12.2-3.2-14.4-2.8-1-5.4.9-8.4-.1-2.5-.9-5-4.4-7.6-4.9M259.3 766.9l64-1.3c17.4-82.2 32.6-164.9 45.7-247.9 1-6.4 2-13.1.2-19.4-3.5-11.8-16.2-18.5-28.3-20.8-18.8-3.5-53.4 1.4-63 21-10.3 20.6-8.6 57.6-11 80.4-6.8 62.4-9.3 125.2-7.6 188"/><path fill="#efbfa5" d="M413.9 867.9c4.1.1 8.2-.8 12.3-1.2 2.1-40.7-1.8-83.5-3.4-124.4-10.5.5-21 1-31.4 1.7a366 366 0 0 1 15.5 67.3c.5 3.6 6.4 56.6 7 56.6"/><path fill="#292949" d="M427.4 858.8c2.6-.4 4.2.7 5.9 2.3 1 .9 1.7 2.2 2.9 2.8 1.2.7 2.4.8 3.8 1 7.5.7 25 .4 15.7 13-8.4 11.5-30.8 7-43.7 3.8-.9-.2-1.8-.3-2.4-1a6 6 0 0 1-1.3-2.5c-1.5-5.4-3.5-12.2 3.2-14.4 2.8-1 5.4.9 8.4-.1 2.4-.9 5-4.4 7.5-4.9M446.3 766.9l-64.1-1.3c-17.3-82.2-32.5-164.9-45.6-247.9-1-6.4-2-13.1-.2-19.4 3.5-11.8 16.2-18.5 28.3-20.8 18.8-3.5 53.4 1.4 63 21 10.3 20.6 8.5 57.6 11 80.4 6.8 62.4 9.3 125.2 7.6 188"/><path fill="#353a85" d="M391.5 315.9c17.1 16.3 30 37.2 37.7 59 13.6 38.3 14 79.3 14 119.5l.2 40c0 13.2-1.2 16-15.5 14.3-26.4-3.2-54-8.6-78-20.4-11.4-5.6-22-12.7-34-17.1-17.5-6.4-35.4-3.5-52.6-7.7a408.7 408.7 0 0 0 16.7-65.2c4-24 7.5-50.1 13.3-73.8 3.5-14.2 10-27.5 16.6-40.6a73.6 73.6 0 0 1 16.6-24c22.6-19.2 48-.2 65 16"/><path fill="#efbfa5" d="M329.7 259.6c3.3 7 8.5 13 12.9 19.4 4.2 6.3 5.7 12 6.8 19.3.8 5.2 2.7 9.3 9 10.3 12 1.7 8.5-8.2 11.3-15.4 3-8.3 9.7-14.7 14.3-22 13.4-21.3 9.6-63.2-18.2-72.1-30.4-9.8-45.9 39-36 60.5"/><path fill="#292949" d="M378.2 239c3.4.2 7.2.5 9.8 2.8 2.6 2.3 2.3 7.4-1.1 7.9-3 .5-7-2.7-8.9-.4-1 1.4-.1 3.4.7 5a29.1 29.1 0 0 1 2.6 19.7c1.3 1.2 3.3 0 4.4-1.2 5.5-6 9.8-13.1 12.6-20.7 1 1.8 2.7 3.4 4.6 4.4-1.1-2.8-.4-6 .3-8.9 2.6-10.7 4.4-23.3-3.1-32-4-4.7-10.1-7.4-16.2-8.5a81.5 81.5 0 0 0-18.6-.6c-2.6.1-5.9.7-6.5 3.1a29.4 29.4 0 0 1 14.7 12.4c.9 1.6 4.3 17 4.7 17"/><path fill="#292949" d="m366 213.3.6.4c2.6 2 5 4.5 8.2 5.4 4.6 1.2 9.5-1 14 .6 5.1 1.7 8.4 7.8 12 11.3a53.4 53.4 0 0 0 34.3 14.9c2 .1 4.5.5 6.4 0 2.6-.7 2.5-1.9-.2-2.7-8.5-2.8-11.2-14.7-10.5-22.6.5-6.2 2.6-12.8.2-18.5-1.8-4.5-5.7-6.7-9.5-9.3-4.1-2.8-8.6-2-13.4-3.4-4.9-1.4-8.9-5.2-14-6.2-5.2-1-10.5 1.3-15.9 2.3-4.3.9-9 .8-13.3-.2-3.9-.8-7.7-2.4-11.7-2.4-6 0-11.4 3.8-14.8 8.6-4.9 6.8-8 18.4-6.3 27.3-.3-1.4 4.4-6.4 5.3-7.5 2-2.3 4.5-4.4 7.6-4.8 7-.8 15.3 2.7 21 6.8"/><path fill="#babcbe" d="M133.2 488.1s6.5 31 2.1 45.1l12 .1-4-49.9-10.1 4.7"/><path fill="#babcbe" d="M146.7 528c-3.4.4-6.7.8-10 1-.6 0-.5 1 0 1 3.4-.3 6.7-.7 10-1.2.6 0 .5-1 0-.9M146.1 523.2l-9 1.2c-.5.1-.4 1 .2 1l9-1.3c.5 0 .4-1-.2-.9M145.7 519.2a23 23 0 0 1-8.6 1c-.5 0-.4.9.1.8 2.9 0 5.7-.3 8.6-1 .5 0 .4-1-.1-.8M145.9 513.5a67 67 0 0 1-8.7 1.5c-.6 0-.5.9 0 .8 3-.3 5.9-.8 8.8-1.5.5 0 .4-1-.1-.8M145 508.4c-2.8.4-5.6.8-8.5 1-.5 0-.4 1 .1 1l8.6-1.1c.5-.1.4-1-.1-.9M144.3 503.4c-2.8.5-5.5.9-8.3 1.2-.6 0-.5 1 0 .9 2.9-.3 5.6-.7 8.4-1.3.5 0 .4-1-.1-.8M143.9 497.6l-9 1.5-.2.1v.1l.2.7h.1l9-1.5c.5-.1.4-1-.1-.9M143.6 491.9 135 493c-.5.1-.4 1 .1 1 3-.5 5.8-1 8.7-1.3.6-.1.5-1 0-1"/><path fill="#d67086" d="m342.7 580.9-212.4 17.8a.5.5 0 0 1-.5-.5l-3-35.4c0-.3.2-.5.4-.6l212.4-17.8c.3 0 .5.2.5.5l3 35.5c0 .2-.1.5-.4.5"/><path fill="#292949" d="m167.7 595.6-22.3 1.8-3-36.4 22.2-2 3.1 36.6M177.9 594.7l-5 .4-3.1-36.4 5-.5 3 36.5M195.2 574.9a6.4 6.4 0 0 1-5.8 7 6.4 6.4 0 0 1-6.9-6 6.4 6.4 0 0 1 5.8-7 6.4 6.4 0 0 1 6.9 6"/><path fill="#5d66d3" d="M341.4 544.7 129 562.5a.5.5 0 0 1-.5-.5l-2.4-28.4c0-.3.2-.5.4-.5L339 515.3c.3 0 .5.2.5.4l2.4 28.4c0 .3-.2.6-.4.6"/><path fill="#eed5d5" d="m153.9 539.2 1 12.7 6.3-6.2zM162.5 539.7l.9 10.3 5-5zM141 561.5h-1l-2.4-29.4h1l2.4 29.4M145.6 561.1h-1l-2.5-29.3 1-.1 2.5 29.4M182.2 204.7l-15.1 5.6.2-3.6c.6-11-1.3-24.1-4.5-34.7l.6-.6 13.9-12 4.9 45.3"/><path fill="#9eb79c" d="m268.6 198.9-87.7 3.8-14.2 7.5 95-4 7-7.3"/><path fill="#b0c0ba" d="M166.4 209.2c2.6-.7 5-2.4 7.4-3.7l6.8-3.8c.4-.2.6 1 .3 1.2l-7.3 4c-2.3 1.3-4.6 2.9-7 3.5-.4.1-.5-1.1-.2-1.2M177.3 161a87 87 0 0 0-14.7 12.3c-.5.5-1.1-1.1-.6-1.6 4.8-5 9.7-9 14.9-12.4.5-.4 1 1.4.4 1.8"/><path fill="#8cabef" d="m265 156-88.4 3.4 1.3 9.8a301 301 0 0 1 2.4 23.6l.6 10 87.7-4v-.5c.8-13.9-.5-28.6-3.6-42.3"/><path fill="#5d66d3" d="M190 159.9c-.3-1.2-2.3-1-2 .2 2.7 13 3.7 26.3 2.9 39.6-.1 1.3 1.8 1.6 1.9.3.8-13.4-.1-26.9-2.9-40.1M254.4 157.9c-.2-1.3-2.2-1-1.9.2 2.8 13 4 26.3 3.2 39.6 0 1.2 1.8 1.5 2 .3.7-13.5-.4-27-3.3-40.1"/><path fill="#efbfa5" d="m140 263-33.9 8.7.7-5c2.2-14.7-1-32.3-7.3-46.3l1.4-.9 31.7-17.1L140 263"/><path fill="#292949" d="m332 248.8-194.7 11.7-32 11 210.8-12.3 15.9-10.4"/><path fill="#353a85" d="M104.8 270.2c5.7-1.1 11.2-3.6 16.6-5.5l15.4-5.6c.8-.3 1.3 1.3.5 1.6l-16.6 6c-5.1 1.9-10.3 4.1-15.7 5.2-.8.1-1-1.5-.2-1.7M132.5 204.6A226.2 226.2 0 0 0 99 222c-1.1.7-2.4-1.4-1.3-2.1 11-7 22.3-13 34-17.8 1.2-.5 2 1.9.8 2.4"/><path fill="#3b3387" d="m327 191.3-196 11.1 2.3 13a244 244 0 0 1 3.5 31.7l.5 13.4L332 248.8v-.8a127 127 0 0 0-5-56.7"/><path fill="#dddae8" d="m324 516.2-179.7 15-3.7-43L320.3 473l.2.6a74.7 74.7 0 0 1 3.5 42.6"/><path fill="#353a85" d="m187.8 527.6-25.1 2.1-3.7-43.1 25.1-2.1 3.7 43.1"/><path fill="#efbfa5" d="m137.4 442.4-33.8-2.1 1.6 3.7a56.9 56.9 0 0 1 1 36.6l1.6.6 32.8 9.2-3.2-48"/><path fill="#292949" d="m332 426.7-196.8 18-32.3-4.2 211-20 18.2 6.2"/><path fill="#353a85" d="M102.7 441.6c5.5 0 11.1 1.2 16.7 2l15.5 2.3c.8.1 1-1.2.2-1.3l-16.8-2.4c-5.2-.8-10.5-1.8-15.8-2-.8 0-.7 1.4.2 1.4M140.2 488.7a258.7 258.7 0 0 1-34.7-9.3c-1.2-.4-2 1.4-.8 1.8 11.5 4 23.2 7 35.1 9.4 1.2.2 1.6-1.7.4-2"/><path fill="#474ebb" d="m336.1 474-197 16.5v-10.3c0-8.4-.7-16.7-2-25l-1.9-10.4 196.9-18.1.2.6a82 82 0 0 1 3.8 46.7"/><path fill="#8cabef" d="m312.8 425.3-186.7 15.6a.5.5 0 0 1-.6-.5l-3.7-43.7c0-.2.2-.5.5-.5L309 380.5c.3 0 .5.2.5.5l3.8 43.7c0 .3-.2.5-.5.6"/><path fill="#5d66d3" d="M332.1 346.7 101.3 366a.5.5 0 0 1-.5-.4L98 333.9c0-.2.1-.5.4-.5l230.9-19.3c.2 0 .5.1.5.4l2.7 31.7c0 .2-.2.5-.5.5"/><path fill="#d67086" d="M292.4 317.8 145.2 330l-5.4-64.5 147.1-12.3.8 3.5c4.5 18.8 6.1 38.1 4.9 57.3l-.2 3.7"/><path fill="#eed5d5" d="m190.7 325.9-29.2 2.4-5.4-63.6 29.2-2.5 5.4 63.7"/><path fill="#d67086" d="m184.2 326.4-16.4 1.4-5.4-63.7 16.4-1.3 5.4 63.6"/><g clip-path="url(#a)" transform="matrix(.1333 0 0 -.1333 0 1066.7)"><path fill="#dedede" d="M1050.6 5979"/><path fill="#242440" d="m1050.6 5979-2.2 26.2 2.2-26.2"/><path fill="#ba6275" d="M2178 5974.5h-2.8l-780.8 3.1-4.7 55.7-219-18.4 3.1-36.4-123.2.5-2.2 26.2 1103.5 92.5 26-123.2"/><path fill="#cfbab9" d="m1394.4 5977.6-49.4.2-4.3 51.4-123-10.3 3.5-40.6-47.4.2-3 36.4 219 18.4 4.6-55.7"/><path fill="#ba6275" d="m1345 5977.8-123.8.5-3.5 40.6 123 10.3 4.3-51.4"/></g><g clip-path="url(#b)" transform="matrix(.1333 0 0 -.1333 0 1066.7)"><path fill="#6e7fdd" d="M1546.7 6583.8h-.4a76 76 0 0 0-75 76.6v.6a75.5 75.5 0 0 0 74.7 75.8 76 76 0 0 0 75.3-76.3v-1.3a75.5 75.5 0 0 0-74.6-75.4"/></g><path fill="#dddae8" d="M122.5 347.5a33.3 33.3 0 0 0-7.4-6c-1-.6-1.9 1.2-.8 1.9 2.3 1.3 4.4 3 6.3 5a59.6 59.6 0 0 1-5.5 6.6c-.9 1 .6 2.2 1.5 1.3 2.2-2.3 4.2-4.8 6-7.4.4-.5.3-1 0-1.4M133.7 346.1c-1.5-1.9-4-3.4-6-5-1-.8-2.2.7-1.2 1.5 1.6 1.3 3.8 2.6 5.2 4.2-.6 1-1.8 2-2.5 2.7l-2.9 3.2c-.8 1 .7 2.2 1.5 1.3l3.5-3.8c.8-1 2-2 2.5-3a1 1 0 0 0 0-1M139.1 338c-1-.8-2.2.7-1.2 1.5.5.5 1.7 2.3.5 2.6-1.2.4-.6 2.2.6 2 1.2-.4 1.9-1.6 1.8-2.8 0-1.3-.7-2.5-1.7-3.3M148.9 346.5c-.7.8-1.9.9-2.6.1-1.5-1.5.3-3.8 2.2-3l.5.1c.5.9.7 2-.1 2.8m1.4-4.4a1 1 0 0 0-1-.3 4 4 0 0 0-4.9 1.4 4 4 0 0 0 .7 5 3.7 3.7 0 0 0 5-.2c1.7-1.6 1.6-4.2.2-5.9M288 427.4l-2.2.2-3.8-44.9 2.2-.2 3.8 45M297 426.7l-2.2.2-3.8-45 2.2-.1 3.8 44.9"/><g clip-path="url(#c)" transform="matrix(.1333 0 0 -.1333 0 1066.7)"><path fill="#2f3476" d="M2425.1 4381.9"/><path fill="#a6a7a9" d="m1056.8 4314-2.2 8.2 1.5.1.7-8.3"/><path fill="#c5c2cf" d="m1056.8 4314-.7 8.3 83.7 7 54.1 4.6 1.1-13-138.2-7m327.1 16.3-1.6 19.5 1026.3 86s5.5-15.3 10.5-32c2.2-7.2 4.2-14.5 6-21.8l.1-.3-1041.3-51.4"/><path fill="#2f3476" d="m1195 4320.8-1 13 188.3 15.9 1.6-19.6-188.9-9.3M1054.6 4322.2"/><path fill="#3f46a6" d="m1054.6 4322.2 85.2 7.2-83.7-7-1.4-.2"/></g><path fill="#292949" d="M322.9 379.8 92.1 399a.5.5 0 0 1-.6-.4L88.8 367c0-.3.2-.5.5-.5L320 347c.3 0 .5.2.6.5l2.6 31.6c0 .3-.1.5-.4.6"/><path fill="#dddae8" d="m121 387-3.5.3-1.1-13.4 3.5-.3L121 387M132 386l-3.5.3-1.1-13.3 3.4-.3 1.2 13.4"/><path fill="#eed5d5" d="m333 346-231.5 19.8a1 1 0 0 1-1.2-1.3L332.1 343l.9 3.1"/><path fill="#dddae8" d="m332 344.7-231.5 19.7a1 1 0 0 1-1.2-1.2l231.8-21.6.9 3"/><path fill="#babcbe" d="M129.7 271.7s10.3 40.3 3.6 57.9l12 .5-5.5-64.1-10.1 5.7"/><path fill="#efbfa5" d="M307 481c.2-.4.3-.8.6-1.1 2.2-3 5.2-3.3 8.2-5.6 1.3-1 1-5.4 4.2-4.2 1.2.4 4.1 1.9 6.7 2.8 3.8 1.4 9.4.8 13.8-.4a127.5 127.5 0 0 0 34.6-15.1c4.6-2.7 11.9-5.7 15.3-9.8 5.9-6.8-.9-23.6-1.7-32.1-.8-9 0-35.3 12-36 19.8-1.2 20.1 17.5 21 32.6.6 9.5.5 19-.3 28.5-1.2 13.2-9.8 20.7-21 27-12 6.6-24.3 13-37.4 17-6.4 2-12.7 2.5-19.2 3.5s-5.6 3.9-11 6.2c-3 1.4-6 3.3-9.1 4-5.8 1.3-10.4-2.7-14.8-5.8-1.1-.7-1.9-1.3-2.4-2.4-1-1.8-.6-3.7-.3-5.7.2-1.1.4-2.3.8-3.4"/><path fill="#353a85" d="m421.3 417.2-33.5 6.5c.7-.1-12.9-50-13.6-53a82.4 82.4 0 0 1-3.1-35c5-24.5 16.8-30.6 31.8-4.7 14 24.4 36.2 53.7 31.8 81.5 0 .6-.2 1.2-.5 1.7-.6.6-1.5.8-2.3 1l-10.6 2"/><path fill="#8cabef" d="M699 333a147.9 147.9 0 0 0 53 19.6c3.4-15.3 7-30.7 10.7-46a81.2 81.2 0 0 1 6.5-19.2c1.7-3.2 8.2-9 6.2-13.2-3.6-7.2-18.8.8-23.2 3.2-11.4 6.3-21.8 15-30.7 24.4-2.2 2.3-24.5 30-22.6 31.2"/><path fill="#efbfa5" d="m855.2 694.5 1 62.9c-.4 17.4 1.2 34.8 2.2 52.2 1 16.2-2.2 32.8 5.4 47.8 2.4 4.7 7.5 8 11.4 2.5 3-4.2 1.7-11.4 2.4-16.3 5.6-36.4 16-72 21-108.5 5.5-38.2-9.3-37.2-43.4-40.6"/><path fill="#292949" d="m858.8 846.6-4 10.5 19.8 17.5 18.2.8 6-9.6-24.6-21.4-15.4 2.2"/><path fill="#efbfa5" d="M810.7 695.1 799.2 757c-4 27.7-13 54.6-17 82.3-1 6.4-.5 13.3-3.1 19.3-2.6 5.9-7.7 6.1-12.2 2.1-6-5.3-3.2-14.8-3.1-22.1.7-48.6-3.1-96.4-4-145 0-.7 0-1.4.5-1.8.4-.3 1-.3 1.5-.3 4.7.3 48.6 5 48.9 3.7"/><path fill="#292949" d="m763.6 849.2-6.3 9.3 15.5 21.6 17.5 4.8 8-8-19.1-26.3-15.6-1.4M920 734.5l-8.6-89.9-4.1-58.4-14-47.7-75-11.7-92.9 16-4.4 18 17.8 167 89.6 6.7-1.2-104L841 695l-.6 39.5H920"/><path fill="#fff" d="m745.1 362.9-.2 9c-1.1 61.7 2.3 124.2 2.7 186.3 31.8-5 64-7.7 96.2-8.2 2.7 0 8.7.6 15.5 1.3 12.4 1.1 27.6 2.3 30.6-.6 6.4-6-.6-5-.2-12.8.7-10.2-4.2-18.5-2.4-30.6 2.2-14.2 6.5-28.2 9-42.4 5-28.4 8-57.2 9-86.1.8-25.6 0-52.1-11.1-75.3-27.2-57-114.7-56-138.7 3.6a167 167 0 0 0-10.4 55.8"/><path fill="#8cabef" d="M843.9 282.9 820 326.2l3.7 131.3 1.8 60.5.6 21c0 3.1-.8 8.4 1 11 3 4.3 12 4.2 18.9 4.2l5.4.1a107 107 0 0 1 28.6 5c6 2.1 11.8 5.5 18.2 6.4 1.5.2 3 .2 4.2-.7 1.3-1 1.5-2.8 1.6-4.5 2.2-30 2.3-61 4-91.3 1.3-24 4.5-48 3.4-72-1.2-24.5-5-49-9.8-73.1-2.7-14.3-6-29-13.9-41.2-9-13.9-21.5-19.4-37-22.5-5.6-1.2-26-8.9-22.6 3.6 1.7 6.2 11.5 13.9 15.7 18.9M792.2 287l23.7 43.3c-.5 0-3 106.2-3.2 113.3l-2.3 81.8c-.2 7.6.8 16.5-.7 23.9-2 10.4-13 8.4-22.3 9.2-20.4 1.8-41.9 5.3-62.4 4.3-5.9-.3 2-123.5 1.9-135 0-41.3-8.6-87.2 12.4-124.7 6.1-10.9 17-28.3 28.8-33.7 11-5 27-6 39-8.7l.6 7.8-15.5 18.4"/><path fill="#292949" d="M843.8 182a48 48 0 0 1 5.9 21.7c0 2 .2 4.3 1.8 5.5 1.7 1.2.2 4 1.5 2.3a37 37 0 0 0 6-9.7c.5-5 .5-10 0-15.1-.4-4.4-1.3-9-4.2-12.2-1.6-2-3.9-3.4-6.1-4.7-3.2-2-6.6-4-10.3-4.6-6.4-1.2-10.3 1-4.6 5.5a39 39 0 0 1 10 11.3"/><path fill="#efbfa5" d="M803.9 267.6c0 3-.6 6.3 2.1 8.7 1.3 1.1 3.1 1.6 4.8 1.8 4.5.7 9.1.4 13.4-1a12 12 0 0 0 4.9-2.5c1.6-1.5 1.6-3 1.7-5 .1-2.2.6-4.6.9-7 .6-5.1 1-10.3 1.1-15.5 7.6-1.3 16.6-3.8 19.2-11.8.9-2.6.9-5.3 1-8 0-11 0-22.2.2-33.3 0-3.8 0-7.8-1.3-11.3-2.3-6.3-8.2-10-14-12.3a50 50 0 0 0-45.2 2.7c-3.6 2.3-7 5.2-9 9.2-3.3 6-2.9 13.6-2.4 20.6l1.4 19.5c.5 7.4 1.6 16 7.4 20 3.1 2 7 2.5 9.7 5.2 4.7 4.7 2.5 11.8 3.8 17.5.2.8.3 1.6.3 2.5"/><path fill="#292949" d="M828 238.5c-4 2.7-8.4 2.8-12.9 1.5-1.9-.6-1-3.7.8-3.2 3.7 1.1 7.2 1.1 10.5-1.1 1.7-1.1 3.2 1.7 1.5 2.8m27.7-15.6c-.1-2-1-8-4.1-4.3-.8 1-1 2.4-1 3.7-.1 1.3 0 2.7-.5 4-1 2.8-4 4-6.9 4-1.1 0-2.2-.2-3.2-.7-1-.6-1.8-1.5-2.5-2.3L832 221c-3.1-3.6-9.3-2-13.4-1.5-4.9.6-9.7 2-13.6 5.3l-1.2 1c-1 .8-1.9 1.6-3 2.1-3.7 1.8-8.3 0-11-3.5-1.1-1.5-2.2-3.5-4-3.8-1.5-.2-3 .9-3.7 2.2-.7 1.4-1 3-1 4.6-.4 5.7.4 11.6 2.9 16.7 5.3 11 15.8 12.4 26.2 12.1 4.2 0 8.3-.2 12.4-.3 7.6-.1 15.6-.4 22-4.8 5.6-4 9-10.5 10.3-17.4.7-3.6 1-7.3.7-11M857.2 162.8c.7-2.7 1.3-5.5 1.6-8.2-2.6.9-5.3 1.1-8 .7v-4.8c0-1.4-18-2.3-19.5-2.4-13.6-1.1-26.1-2.2-38.5 5.1A37.2 37.2 0 0 0 774 181a56.9 56.9 0 0 0 9 36.5c0-3.1-1.8-10.4-1-13.4.4-3 1.4-5.8 2.8-8.4 2.8-5.2 7.1-9.6 12.1-12.8 8-5 17.4-7.6 26.7-9a72.8 72.8 0 0 1 27.3 0c4 1.1 4.7 2.1 7.1-2 .5-.7 3.9-9 3.5-9l-4.2-.1"/><path fill="#353a85" d="m1123.3 368.8-305 30.3-305-30.3a14 14 0 0 0-15.3 15l12.7 301.7a14 14 0 0 0 12.5 13.2c50.2 5.1 246 24.7 268 27.2 1.1 0 2.1.7 2.6 1.7 1.5 3 6.8 8.8 24.5 8.8 17.8 0 23-5.9 24.5-8.8.6-1 1.5-1.6 2.6-1.7 22-2.5 217.8-22 268-27.2a14 14 0 0 0 12.6-13.2l12.7-301.8a14 14 0 0 0-15.4-14.9"/><path fill="#5d66d3" d="m1123.3 363.8-305 30.3-305-30.3a14 14 0 0 0-15.3 15l12.7 301.7a14 14 0 0 0 12.5 13.2c50.2 5.1 246 24.7 268 27.2 1.1.1 2.1.8 2.6 1.8 1.5 2.8 6.8 8.7 24.5 8.7 17.8 0 23-5.9 24.5-8.7.6-1 1.5-1.7 2.6-1.8 22-2.5 217.8-22 268-27.2a14 14 0 0 0 12.6-13.2l12.7-301.8a14 14 0 0 0-15.4-14.9"/><path fill="#dfd8c7" d="M819.5 392c-140.5-94-282.2-51.5-282.2-51.5v326.4c195.8-39.7 281 42.6 281 42.6s85.2-82.3 281-42.6V340.5S960 298 819.6 391.9"/><path fill="#c1bbac" d="M537.3 340.5s-6.3 24.8-28.1 39.7l14 311.9s14.1-11 14.1-25.2V340.5M1099.4 340.5s6.2 24.8 28 39.7l-14 311.9s-14-11-14-25.2V340.5"/><path fill="#cbc4b5" d="M523.2 692s195.4-44.6 282.7 34.1h12.4v-16.6s-88.1-83.8-281-42.6l-14 25.2M1113.4 692s-195.3-44.6-282.7 34.1h-12.4v-16.6s88.2-83.8 281-42.6l14.1 25.2"/><path fill="#f4f4f4" d="M672.8 320.5c-17-1.6-33.8-2.3-49.8-2.5-7.3 0-68 2.3-68 4.3v328.4c0-2 60.8-4.3 68.2-4.3 52.2.6 110.9 10.2 157 35.6 7.8 4.3 39 21 39 32.8V395.2c0-6.5-2.4-12.8-6.8-17.6-35.1-37.5-88-52-139.6-57"/><path fill="#fff" d="M965.7 320.5a563 563 0 0 1 49.8-2.5c7.3 0 68 2.3 68 4.3v328.4c0-2-60.8-4.3-68.2-4.3-52.2.6-110.9 10.2-157 35.6-7.8 4.3-39 21-39 32.8V395.2c0-6.5 2.4-12.8 6.8-17.6 35.1-37.5 88-52 139.6-57"/><g clip-path="url(#d)" transform="matrix(.1333 0 0 -.1333 0 1066.7)"><path fill="#f4f4f4" d="M6144.4 2638.7v2397.4a193 193 0 0 0 51.7 132c262.9 281.3 659.5 389.6 1047 428a4221.8 4221.8 0 0 0 375.8 18.8c66.4 0 507.3-17 507.3-32.3v-783.7c-62.8-369.2-71.3-780.7-5.8-1115.8l5.8-.5v-563.2c0 15.3-440.9 32.3-508.3 32.3h-3c-77.7-.8-157.2-4.3-237.5-10.8-1001.5 435-1198.3 1499.7-1233 1776.7V2638.7m292.5 246 1.8 1-1.8-1m2.4 1.3 1.3.7-1.3-.7m2 1.1 1.2.7-1.2-.7m1.9 1 1.5.9-1.5-.9m2 1.1 1.6 1-1.6-1m2.4 1.4 1 .5-1-.5m2 1 .9.5-1-.5m6.6 3.6.6.2-.6-.3m1.8 1 .6.3-.6-.3m1.9 1"/></g><g clip-path="url(#e)" transform="matrix(.1333 0 0 -.1333 0 1066.7)"><path fill="#5a63ca" d="m6206.5 2733.8 2.7 2.5-2.7-2.4"/><path fill="#d6cfbf" d="M6209.2 2736.3c74 65.2 189.4 127.2 227.7 148.4-38.3-21.1-153.7-83.2-227.7-148.4m229.5 149.4.6.3-.6-.3m1.9 1 .7.4-.7-.4m2 1c.1.2.4.3.6.4l-.7-.3m2.2 1.2.5.2-.5-.2m2.1 1.1.8.5-.8-.5m1.9 1 .9.5-1-.5m1.9 1 1 .5-1-.5m1.8 1 2 1-2-1m2.6 1.4 1.2.6-1.2-.6m1.8 1 1.2.6-1.2-.7m1.7 1 1.4.7-1.4-.7m1.4.7c273.2 145 601.6 218 917.6 243.8v-.2c-316-25.7-644.4-98.6-917.6-243.6"/><path fill="#c3bcae" d="M6144.4 2638.7c0 29.2 25.6 62.5 62 95.1-36.3-32.6-62-65.9-62-95"/><path fill="#bbb4a7" d="M6144.4 2638.7c0 29.2 25.6 62.5 62 95.1-36.4-32.6-62-65.9-62-95"/><path fill="#eae9e9" d="M6144.4 2638.7v2279c34.7-277 231.5-1341.9 1233-1776.9-316-25.6-644.4-98.7-917.6-243.7l-1.4-.7-.5-.3-1.2-.7-.6-.3-1.2-.6-.6-.3-2-1.1a84 84 0 0 0-.9-.5l-1-.5-.8-.5-1-.5-1-.5-.8-.5-1.6-.9-.5-.2-1.5-.9-.7-.3-1.2-.7-.7-.4-1.3-.7-.6-.3-1.8-1c-38.8-21.4-156.7-84.8-230.4-150.8-36.5-32.7-62.1-66-62.1-95.2"/></g><path fill="#efbfa5" d="M1358.6 398.3a5 5 0 0 0-1.4-.5c-4.3-.5-7 1.8-11.3 2.5-.6 0-1.5-.3-2.4-.7-1.6-.8-3.4-1.5-4.5 1-.6 1.3-1.6 4.9-3 7.8a28.7 28.7 0 0 1-11.3 11.3 205 205 0 0 1-58.7 20.5c-1.1.3-2.3.6-3.5.3-2-.6-3.2-2.6-4.2-4.5-4.7-8.7-10.1-17-16.3-24.7a59.5 59.5 0 0 0-19.7-17.2c-7.9-3.8-17.8-4.5-25.2.2a20.9 20.9 0 0 0-9.7 16.3c-.8 16.3 20.7 26.7 31.9 35 10.6 8 21.8 15.1 33.4 21.4 1.5.8 3 1.6 4.6 1.8 1.7.1 3.4-.4 5-1a618.5 618.5 0 0 0 62.2-25.9c5.6-2.6 9.1-7.8 14.3-10.2 2-1 4-.9 6-.8 1.6 0 3 0 4.5-.3a34 34 0 0 0 10.6-4.5c5.7-3.8 6-11 7-17 .1-1.6.3-2.7-.2-4-.8-2.3-2.7-3.5-4.6-4.8-1-.8-2.3-1.5-3.5-2"/><path fill="#dddae8" d="m1217.6 439.6 32.2-23.1c-.7.5-32-50.9-33.9-53.9-7.5-11.4-15.3-23.2-27-30.4-24.6-15.5-55.9 6.9-46.4 35.5 10.4 31.1 33.4 60.9 60.3 79.4.6.4 1.3.8 2 .8 1 .1 1.8-.5 2.6-1 3.4-2.5 6.8-5 10.2-7.3"/><path fill="#efbfa5" d="m1193 838.9-.5 33.1 19.6.3.5-36.8-19.7 3.4"/><path fill="#292949" d="m1210.4 867-17.1 5.7-5.1 5.5.8 13 46.2 3.6a10.3 10.3 0 0 0-5.1-15.6l-2.2-.8-17.5-11.3"/><path fill="#efbfa5" d="m1051.4 807-13 30.6 18 7.7 14.5-33.8-19.5-4.4"/><path fill="#292949" d="M1056.1 845.8c-.6-.7-1.4-1.4-2.3-2-2.1-1.6-19.7-10.9-21.2-6.7-.2.7-.1 1.4 0 2.2 1.4 12 4.2 23.9 8.4 35.3 1.7 4.8 4.4 10.2 9.4 11.4 2.3.6 4.6.2 6.8-.3a70 70 0 0 0 9.6-3c1.2-.4 2.4-1 3-2 1.2-2.1-1-4.7-3-5.8-2.2-1.2-4.9-2-6-4.2-.4-1-.5-2.2-.5-3.3-.5-8.1.9-16-4.2-21.6"/><path fill="#babcbe" d="M1174.8 685.2c-6.5 29.5-24.9 50.7-44.6 72.4a933.4 933.4 0 0 0-63.4 77.8l-25.6-10.6c7.2-41.4 26.8-79.4 42-118.6 10.6-27.2 19.2-56 19.6-85.4.3-14.6-3.3-28-5.2-42.2-2.3-17.7-2.5-35.7-4.6-53.4-.7-6-1-13 3.5-16.8 2-1.8 4.7-2.5 7.3-3 97-18.8 83.2 123.8 71 179.8"/><path fill="#babcbe" d="M1095.8 530.7a201 201 0 0 1 5.5-48.2c27.6-1.5 58.7 1.5 86 7 26.7 5.5 43.3 11.3 43.5 40.2.3 53.2 21.1 98.5 30.1 149.6 5.2 29.7-3.8 56.3-13.8 83.8a933.5 933.5 0 0 0-29.1 96.1l-27.7-.1c-9.2-41-5.4-83.7-6.2-125.7-.5-29.2-3.5-59-14.2-86.4-11.8-30.1-28.8-18.2-48.3-35.6-19-17-25.7-49.8-25.8-80.7"/><path fill="#d67086" d="M1127.1 326a74 74 0 0 0-8.3 8l-7.1 7.6c-8.3 8.8-12.3 21.7-15.8 33-18.5 58.8-25.2 139.5-13.2 201 45.6 4 98.4-7.6 143.9-13.8 4.4-.6 9.4-1.6 11.7-5.4 1.4-2.3 1.4-5.2 1.4-7.9 0-39-8.2-81-16-119.5a420.7 420.7 0 0 0-12.4-48c-5.4-16.7-11.6-34.7-24.4-47.3-13.7-13.5-39.8-20.2-57-9.6-1 .6-1.9 1.2-2.8 2"/><path fill="#efbfa5" d="m1132.1 334.2-2.5-15.9-3.1-1.7c-19-12.2-51-77.4-.2-92 46-13.2 43.6 50.1 34.6 76.5a39.2 39.2 0 0 1-6.6 12.5c-2.1 2.5-2.6 2-2.3 5 .3 2.8 3.2 6 3.8 9 .7 3.2.4 6.8-1.4 9.4a12.6 12.6 0 0 1-4.6 3.9c-2.8 1.4-6 2.3-9.2 1.7-3.7-.7-8-4.6-8.5-8.4"/><path fill="#292949" d="M1171.7 277.2c-3.8 13-7 18-11.7 23.8-9.6 12.3-1.6-31.2-5.6-46.2-.3-1.2-.6-2.5 0-3.5s1.8-1.3 3-1.5c19.3-4.2 19.2 12.7 14.3 27.4M1120.8 300.7c-3.1 4.3-10 3.2-14.7.7a52.2 52.2 0 0 1-27-55.3c3.7-18 26.5-31.7 31.1-9.2 1.7 7.9-3.2 19-2 27.7 1.5 12.6 7.4 24.7 12.6 36"/><path fill="#292949" d="m1171.5 208 6.8 2.7c5 2 8.5 2.6 13.5-.3 1.5-.8 11.2-10 8.8-11.8 15.5 12.6 2.8 31-3 44-4 8.7-4.7 21.1-13.5 26.8-9.6 6.4-16.3-1.6-25-5.2-7.7-3.1-16.1-4.9-24-7.7-13-4.6-32.4-12.8-28.1-30.1 5-20.3 25.6-25.3 44-23.8 7.9.7 14 2.9 20.5 5.4"/><path fill="#353a85" d="m1377.8 597.4-47.7-71.8v-244c0-4.3 5.5-6 7.9-2.5l39.8 60v258.3"/><path fill="#fff" d="m1375.7 341.4-41-60.8-17 3.5 49.2 61.5v254l8.8-2.2v-256"/><path fill="#fff" d="m1182.3 323.1 29.2-10.6 155.4 33.1v245.8l-184.6-33.2v-235"/><path fill="#353a85" d="m1353.9 605-181.2-25c-4-.8-7-4.4-7-8.5V330.7c0-5.4 5-9.5 10.4-8.4l177.8 24.3V605"/><path fill="#5d66d3" d="M1377.8 339c-.5 1.9-5 4.7-11 6.6-6.3 2.2-12 2.6-12.9 1V605c.7 1.7 6.5 1.3 13-1 6.6-2.1 11.4-5.3 10.9-7V339"/><path fill="#dfd8c7" d="M1317.8 284.1v51l49 10.5z"/><path fill="#cbc4b5" d="M1366.9 345.6 1225.5 309v6.6z"/><path fill="#8cabef" d="m1187.2 531 149.2 20.6V585l-149.2-20.6V531"/><g clip-path="url(#f)" transform="matrix(.1333 0 0 -.1333 0 1066.7)"><path fill="#eee" d="M10153.8 3462.4 9289.4 3582l864.4-119.6"/><path fill="#aeb0b2" d="m9289.4 3582-494 68.3 494-68.3"/><path fill="#34387d" d="M10153.9 3462.4h-.1L9289.4 3582l-494 68.3a1515 1515 0 0 1 275.9 93.6l952-131.6v250.6l-621.7 86c639.5 521.3 752.3 1451.2 752.3 1451.3V3467.4a7.3 7.3 0 0 1 0-4.1v-.9"/><path fill="#5961c5" d="M10153.9 3462.4v.9a7.3 7.3 0 0 0 0 4.1v1932.8-1937.8"/><path fill="#84a0df" d="m10023.3 3612.3-952 131.7a1497.3 1497.3 0 0 1 330.3 205l621.7-86v-250.7"/></g><path fill="#efbfa5" d="m1279 505.4-1-1c-3.8-2.2-7.1-1.1-11.3-2.2-2-.5-3.5-5.3-6.5-2.6-1.1 1-3.5 4-5.9 6.1a28.8 28.8 0 0 1-15 5.8 205 205 0 0 1-61.9-4.5 7.5 7.5 0 0 1-3.3-1.2c-1.7-1.3-2-3.7-2-5.8-.9-9.9-2.6-19.6-5.1-29.1-2.4-8.5-5.5-17-11.2-23.7-5.8-6.6-14.6-11.2-23.3-10-6.5 1-12.4 5.3-15.3 11.2-7.3 14.6 8.2 32.7 15.2 44.9 6.6 11.5 14 22.5 22.1 33 1 1.2 2 2.5 3.5 3.3 1.5.9 3.3 1 5 1.2 22.4 1.8 44.8 1.6 67.4 1 6.1-.2 11.5-3.6 17.2-3.7 3.6 0 6.5 2.5 10 3.2 3.4.7 8.1.8 11.5.1 6.8-1.2 10-7.6 13.2-12.9.8-1.3 1.4-2.2 1.5-3.6.1-2.4-1.1-4.3-2.3-6.3-.7-1.1-1.5-2.2-2.4-3.2"/><path fill="#d67086" d="m1133.3 487 38.7-8.3c-.8.2-9-59.4-9.6-62.9-2.3-13.5-4.8-27.4-12.5-38.7-16.5-24-54-16-56.8 14-3 32.7 6.3 69.2 23.7 96.9.3.6.8 1.2 1.4 1.6.8.4 1.9.2 2.8 0l12.3-2.6"/><path fill="#292949" d="M671 830.1c-1.5-13.9-8.5-25-21.4-31-10.5-5-22.3-6.1-33.7-7.6-25.6-3.3-50-6.5-75.8-5.5-20.6.8-33.3 18.4-43 35.8-6 10.9-4.4 16 3.3 25.2 7 8.4 15.6 15.6 25.2 21 19 10.9 48 8.2 69 5.9 19.7-2.2 39-8.1 56.5-17.3 11.4-6 21.6-12.9 20-26.5"/><path fill="#292949" d="M542 868c-3.4 8-6.4 16.3-9 24.6-1.3 4.4-2.5 9-2.4 13.5.4 10.8 12.4 18.7 20.3 8.7 3.4-4.4 6.2-9.3 8.1-14.5 3-7.7-3.2-3.2-8.3-5.6-6-2.7-5.8-4.8-3.3-10.3 3.3-7.2 7.1-11.8 6.6-20 0-2.3-.7-5-2.8-5.8-1.6-.7-3.5 0-4.8 1.1a13 13 0 0 0-2.7 4.4l-1.7 4"/><path fill="#b97262" d="m582 614.1 21 2c1-6 1.6-12.3 1.8-18.6 6-1 13.2-3 15.3-9.5.7-2 .7-4.2.7-6.4l.2-27c0-3 0-6.3-1-9.2-1.8-5-6.4-8-11-10a39 39 0 0 0-35.9 2.2 19.8 19.8 0 0 0-7.2 7.4 32 32 0 0 0-1.9 16.7l1.1 15.8c.4 6 1.3 13 5.9 16.2 2.4 1.7 5.6 2 7.7 4.2 3.7 3.9 2 10.8 3.3 16.2"/><path fill="#292949" d="M610.6 545c.3.4.5 1 .7 1.5 1 2.7.4 6 1.4 8.7 1.6 4.4 6.8 7 7.7 11.6.7 3.7-1.8 7.4-2 11.2-.1 4.2 2.6 8 2.3 12.2-.3 3.6-2.5 8.7-4.6 11.6.6-1 6.6-.7 8.2-1.7 2.3-1.5 2.6-2.4 3.3-4.9.6-2.5 0-4.9 1-7.4 1.4-3.2 4-5.5 5-8.8 1.2-4.5-1.2-9.3-1.1-14 .1-7 6.1-13.9 3.8-20.6-1.4-4-5.3-6.4-7.5-10-1.7-2.6-2.4-5.8-3.5-8.7-1.2-3-3.3-5.9-6.3-6.7-1.7-.5-3.5-.2-5.3-.5-3-.5-5.5-2.6-8.4-3.5-4.1-1.3-11.3 3-13.7 6.5-2.3 3.6-1 6.5 1.5 9.5 4.1 5 14 8.2 17.5 14"/><path fill="#292949" d="M551.4 525.5c-2.4 1.9-5.5 3.2-7.7 5.4-4.3 4.2-5 10.8-5 16.9-.1 5.3-2.4 10.1-1.7 15.7.5 3.8 2.1 7.6 5.2 9.7 3.9 2.7 9.9 3 11.6 7.4 2 4.8-2.9 10.8.2 15 1.7 2.2 5 2.5 7.3 4 2.7 1.6 4.1 4.7 5.8 7.3 1.7 2.7 4.1 5.4 7.3 5.4 0-4.8 0-8.6-2-13-1.3-2.5-4.9-7.1-2.2-10 1.6-2.2 5.6-3 5.7-6 0-1.3-1-2.4-1.7-3.5-3-4.3-3.3-10-1.5-14.9 1.9-4.8 5.8-8.7 10.4-11 5.4-2.8 4.5-4.2 6-9.4 1.4-4.9 4.1-6 8.4-7.9 4-1.6 5.1-2.6 6.5-6.3 1-2.7 2.3-6 .7-8.9a18 18 0 0 0-5.6-5.5c-4.5-3.3-9.5-6.8-15-6.3-3.1.3-6 1.8-9.1 2-2 .2-4.1-.3-6.2-.3-3.5 0-7.2 1-10 3.2s-2.7 4.4-4.2 7.4c-.8 1.5-1.9 2.6-3.2 3.6"/><path fill="#292949" d="M563.5 505.6c.4-3.3 0-7.7-3.2-8.7-1.7-.6-3.7.1-5.5-.2-3.9-.8-5.3-5.4-7.4-8.8a3 3 0 0 0-1.2-1.2c-.8-.3-1.6 0-2.5.1-3.8.5-6.8-3.2-10.5-4.5a9 9 0 0 0-11.3 5.9c-.5 1.9-.4 4-.9 5.8-2 7.8-13.2 11.3-13.3 19.2-.1 5.4 5.2 10.5 3.3 15.5-1.3 3.2-5.3 5.5-4.8 8.9.3 2.2 2.7 3.6 5 3.6 2.1-.1 4.1-1.4 5.8-2.8 2.6-2.4 4.6-5.4 7-8 2.5-2.4 5.9-4.5 9.4-4 3.3.3 6.5 2.9 9.8 2.2 2.7-.5 4.7-3 7.3-3.6 2.4-.7 5 .2 7.6.3 2.5.1 5.6-1.2 5.7-3.8 0-.6-.2-1.3 0-1.8.5-1.7 3.3-1.7 3.8-3.3-1.4-2-3.2-1.3-4.2-4-.8-2-.2-4.7 0-6.8"/><path fill="#fff" d="M601 607.4c9.7-1.3 19.5-3 27.7.5 6.9 3 6.7 11.7 8.3 18.3 5 21.8 9 43.8 12 66 1.4 10.6 3.8 21.9 3.8 32.6 0 8.6-2.2 17-1.6 25.7.5 6.7 3.4 14 9.6 16.7 3 1.4 6.6 1.5 9.7 2.8 3.1 1.4 5.8 5 4.2 8-.7 1.5-2.2 2.4-3.6 3.1L648 794c-6 3.3-11.8 6.5-18.1 8.8-9 3.2-18.6 4.3-28 4.8a230.8 230.8 0 0 1-73-8c-12.8-3.5-25.1-9.8-22-24.2 3.2-14.8 9.3-29.6 16-43.2 8-16.5 10.4-36.3 16-53.7a2573 2573 0 0 1 18.1-52.6v-.2c2.3-6.4 3.3-12.7 8.2-17.9 6.8-7 10-1.4 17.7 0 5.6 1 11.7.4 18-.4"/><path fill="#b97262" d="m624.8 876.9 6.6.3c2.4.2 5.1.2 7-1.4 2-2 1.8-5.7 0-8a14.4 14.4 0 0 0-7.3-4.5 78.6 78.6 0 0 0-23.1-3c-1.2.5-1.8 1.8-2.2 3-4 12.1 10.4 13.1 19 13.6M539.7 897.7c-.1 1-.3 2 .2 2.9.3.6.8 1.1 1.4 1.5 4.6 3 10.7-.2 14.2-4.3 3.5-4.2 5.9-9.4 10.3-12.5 10.2-7 1-19.8-9.7-16.9-12.5 3.5-15 18.4-16.4 29.3"/><path fill="#292949" d="M677 831.4c8.9-6.4 17.7-13.8 21-24.7 3.1-10.9-1.4-26.2-12.7-32.5-13.9-7.7-27.5 1.7-37.4 10.6-20.2 18.2-42.3 34.3-63.8 51-7.3 5.5-32.6 26.2-32.6 26.2-.7 3 13 29.3 16.5 28.4 39.3-10.4 77.6-35.8 109-59"/><path fill="#292949" d="M479.2 844c-8.7-4.2-17.3-9.3-20.7-19.4-3.4-10 .4-26.6 11.1-35.9 13-11.2 26.3-5.3 36 1 20 13 41.5 23.4 62.7 34.5 7.1 3.7 32 17.9 32 17.9.7 2.7-11.5 32.7-15 32.6-38-.2-75.3-15.7-106.1-30.7M610 882.2c7.9 3.9 16 7.3 24.3 10.3 4.4 1.5 9 3 13.6 3 10.9.2 19.4-11.5 9.7-20-4.2-3.6-9-6.7-14.2-8.9-7.6-3.3-3.4 3-6 8.2-3 5.8-5.2 5.5-10.7 2.7-7-3.6-11.5-7.7-19.8-7.6-2.3 0-5 .5-6 2.6-.8 1.5-.2 3.5 1 4.8 1 1.3 2.6 2.2 4.2 3l3.9 2"/><path fill="#b97262" d="M723.8 736.9c-.2-.5-.3-1-.3-1.6.3-4.8 3.3-7.2 4.8-11.7.7-2-2.7-6.3 1.7-7.4 4.5-1.2 13.1-.4 16.2-4.5 1.3-1.8 3-4.2 5.2-3.7.7.2 1.4.7 2 1.3 18.3 17.8.4 39.2-19.6 38.5-1.7 0-2.9 0-4.3-.9-2.2-1.3-3.2-3.6-4.2-5.8-.7-1.4-1.2-2.8-1.5-4.2"/><path fill="#fff" d="M759 740c4.6 2 10.2 0 13.3-3.8 3.1-3.8 4-9.1 3.2-14-.8-4.8-3.2-9.3-5.9-13.5A28.2 28.2 0 0 0 757 697c-3-1.1-6.3-1.4-9.6-1.5-2.2 0-4.6.1-6.2 1.6a8.1 8.1 0 0 0-2 4.3c-2.1 10-.4 11.5 6.2 18.1a79 79 0 0 1 13.7 20.6"/><path fill="#dfd8c7" d="M457 630.4V615s82.4-7.6 132 25.4l-132-10"/><path fill="#fff" d="m440.1 628.8 11-8.5s67.5-13 138 20.1v183.3s-47.8-34.3-149-20.8V628.8"/><path fill="#dfd8c7" d="M721 630.4V615s-82.4-7.6-132 25.4l132-10"/><path fill="#fff" d="m738 628.8-11-8.5s-67.5-13-138 20.1v183.3s47.8-34.3 149-20.8V628.8"/><path fill="#353a85" d="M589 640.3c7.7-.4 13.6-2.2 13.9-4.4l.1-.2h-.1l.4-.1c2.2-1 12.5-3 15.6-3.7l.7-.2h.1c8.7-2.2 17.6-3.8 26.5-5 33.9-5.3 58.7-4.4 72.7-2.3a74.9 74.9 0 0 1 17.7 4.4c1.6.9 3 2 4.1 3.8 1.5 2.3 1.6 4.6 1.6 7.3v161.9c0 4.5-3.8 9-8.3 8.2a281.3 281.3 0 0 0-121.6 5.2c-5.8 1.6-13 2.8-18.3 5.7a5.8 5.8 0 0 1-4 .5l-1.3-.5c-1.9-.9-3.2-2.9-3.2-5.1V644.3c0-1.4 1.2-2.7 3.4-4"/><path fill="#353a85" d="M589 640.3c-7.6-.4-13.5-2.2-13.8-4.4l-.1-.2h.1l-.4-.1c-2.2-1-12.5-3-15.6-3.7l-.7-.2c-8.8-2.2-17.7-3.8-26.6-5a252.7 252.7 0 0 0-72.7-2.3 74.8 74.8 0 0 0-17.7 4.4c-1.6.9-3 2-4.1 3.8a12.8 12.8 0 0 0-1.6 7.3v161.9c0 4.5 3.8 9 8.3 8.2a281.4 281.4 0 0 1 121.6 5.2c5.8 1.6 13 2.8 18.3 5.7a5.7 5.7 0 0 0 4 .5l1.3-.5c1.9-.9 3.2-2.9 3.2-5.1V644.3c0-1.4-1.2-2.7-3.4-4"/><g clip-path="url(#g)" transform="matrix(.1333 0 0 -.1333 0 1066.7)"><path fill="#292945" d="M4313.8 1868"/><path fill="#e9e9e9" d="m3427.4 1940.1 10.4 1.4-10.4-1.4"/><path fill="#292945" d="M4109.3 1917a2009.8 2009.8 0 0 0 0 0M4053.2 1927a2305 2305 0 0 1-364.3 30.8 1940.5 1940.5 0 0 0-.1 0 2298.8 2298.8 0 0 0 364.4-30.7"/><path fill="#34387b" d="m4313.8 1868-22.5 5.7c-16.7 4.1-33.2 8-48.4 12a1880 1880 0 0 1-189.7 41.4 2298.8 2298.8 0 0 1-364.5 30.7c-74.8 0-158.5-4.3-251-16.3l-10.3-1.4c763 245.2 886.3 1047.8 886.3 1047.8h.3l-.2-1120"/></g><path fill="#5d66d3" d="M589 640c-7.6 0-13.8-2.2-13.8-4.3V819c0 2.6 6.2 4.7 13.9 4.7s14-2.1 14-4.7V635.7c-.8 2.4-6.3 4.3-14 4.3"/><g clip-path="url(#h)" transform="matrix(.1333 0 0 -.1333 0 1066.7)"><path fill="#d4d3d3" d="M4408 3200.4a287.8 287.8 0 0 0-25.6 2h-.7c-37.6 4.8-65 16.5-67.5 28.2v.5l-.2 1v.4l-.4-.2.4.2-3 .8c-15.1 6.7-82.4 20.5-111 26.5 28.6-6 95.9-19.8 111-26.5l3-.8.1-1.4.1-.5c3.2-14.3 43.2-28.5 93.7-30.2m-93.9 30.8-.8 1 .8-.8v-.2"/><path fill="#292842" d="M3271 3232.3"/><path fill="#d4d3d3" d="m4194 3261-5 1.1 5-1"/><path fill="#292842" d="M3284.4 3261.7a74.9 74.9 0 0 1 0 0"/><path fill="#d4d3d3" d="M3300.7 3277.5a91.5 91.5 0 0 1 0 0m10.7 6.6a132.8 132.8 0 0 1 0 0m674.5 16.4a2299.2 2299.2 0 0 0 0 0"/><path fill="#323672" d="M3268.8 3178.1v22.8c0 11.1.2 21.4 2.2 31.4a70.3 70.3 0 0 0 9.2 23.3 78.7 78.7 0 0 0 31.2 28.5c6 3.1 12.3 5.7 19 8 13.3 4.6 26.9 8.5 40.6 12a616 616 0 0 0 73 13.2c47.5 7 111.5 12.2 190.9 12.2a2299.2 2299.2 0 0 0 354.3-29.5c66.9-9 133.3-21.1 198.9-37.6l.9-.3 5-1 6-1.3c28.6-6 95.9-19.8 111-26.6l3-.7-.4-.2-.5-.1 1-1v-21.5l-3 .7c-16.4 7.3-93.7 22.8-117.1 27.8l-5 1.1-1 .2a1764 1764 0 0 1-198.8 37.6 2303.4 2303.4 0 0 1-354.3 29.5c-79.4 0-143.4-5.2-190.8-12.1a561.6 561.6 0 0 1-113.8-25.2c-6.6-2.3-13-5-18.8-8h-.1a77.8 77.8 0 0 1-31.2-28.5c-10.9-17.6-11.4-34.8-11.4-54.7m1045.4 52.5v.5-.5"/><path fill="#cbcbcb" d="M5554 3258a75.3 75.3 0 0 0 0 0"/><path fill="#bab4a7" d="M4423.7 3200.3h1.2-1.2"/><path fill="#d4d3d3" d="M4424.9 3200.3c49.3 1 85.8 12.1 95.6 27.3.6 1.1 1 2.3 1.1 3.5l1 1-.8.4.8-.3-1-1.1c-.1-1.2-.5-2.3-1-3.5-9.9-15.1-46.3-26.4-95.7-27.3m96.9 32.2 3 .8c16.3 7.3 93.5 22.7 117 27.8l4.1.9-4-1c-23.6-5-100.8-20.4-117.2-27.7l-3-.8m126 29.9c65.5 16.5 132 28.7 199 37.6a2302.6 2302.6 0 0 1 0 0c-67-9-133.5-21.1-199-37.6m887 15.4a91.4 91.4 0 0 0 0 0m-10.3 6.3h-.1m-19.7 8.3"/><path fill="#323672" d="M5567 3182.2c-.1 18.1-1.3 34.2-11.4 50.6-8.1 13-18.7 21.9-31.2 28.4h-.1c-5.9 3.2-12.2 5.8-18.9 8a561.5 561.5 0 0 1-113.7 25.3c-47.4 6.9-111.4 12.1-190.8 12.1-96.3 0-215.1-7.7-354.3-29.5-66.9-8.8-133.4-21-198.9-37.6l-1-.2-4.9-1c-23.5-5.1-100.7-20.6-117-27.9l-2.2-.5v22.3a17 17 0 0 0-2-4.6c.5 1.1.9 2.3 1 3.5l1 1-.8.4 2.9.7c16.4 7.3 93.6 22.8 117.1 27.9 1.4.2 2.8.6 4.1.9l.9.1 1 .3c65.4 16.5 131.9 28.7 198.8 37.6 139.1 21.8 258 29.5 354.3 29.5a1342 1342 0 0 0 226.6-17.6 523.1 523.1 0 0 0 78-19.8c6.6-2.3 12.9-4.9 18.8-8a75.3 75.3 0 0 0 31.2-28.5c10.2-16.4 11.3-32.5 11.5-50.6v-22.8"/><path fill="#d4d3d3" d="M4418.2 3200.2h.6-.6m-.3 0h-.2.2m1 0h.5-.6m-1.3 0h-.1.1m-.3 0h-.2.2m2.3 0h.5-.6m-2.5 0h-.2.2m-.3 0h-.2.2m3.5 0h.5-.5m-3.9 0h-.2.2m4.5 0h1.8-1.8m-4.8 0h-.2.2m-.3 0h-.2.2m-.4 0h-.1.1m-.3 0h-.2.2m-.3 0h-.2.2m-.3 0h-.3.3m8.2 0h.2-.2"/><path fill="#bab4a7" d="M4422.7 3200.3h.4-.4"/><path fill="#d4d3d3" d="M4414 3200.3h-.3.2"/><path fill="#bab4a7" d="M4423.1 3200.3h.6-.6"/><path fill="#d4d3d3" d="M4413.6 3200.3h-.2.2m-.3 0h-.2.2m-.4 0h-.1.1m-.3 0"/><path fill="#bab4a7" d="M4412.6 3200.3h-.2.2m-.3 0h-.2.2m-.2 0h-.3.3m-.4 0h-.6.6m-.6 0h-.7.7"/><path fill="#d4d3d3" d="M4410.4 3200.3a9 9 0 0 0-.5 0h.5m-.5 0h-.4.3m-.3 0h-.2.2m-.3 0-1 .1h1m-1 0h-.2.3"/><path fill="#5259b0" d="M4418.2 3177.4c-9 0-17.8.4-26.2 1.1v22.9a264 264 0 0 0 16-1H4411l.6-.1h13.2c49.4 1 85.8 12.1 95.6 27.3 1 1.5 1.7 3 2.1 4.6v-22.3l-.8-.2.8-.4-1-1c-.1-1.2-.5-2.4-1.1-3.6-10.3-15.8-49.6-27.3-102.3-27.3m-35.6 25h-.2.2m-.4 0h-.2.2m-.2 0h-.3.3m-68 7.3v21.7-21.7"/></g><g clip-path="url(#i)" transform="matrix(.1333 0 0 -.1333 0 1066.7)"><path fill="#e9e9e9" d="M4314 3232v.3-.2"/><path fill="#575fc1" d="M4392 1823.3c-45 4-78.3 18-78.3 34.5l.3 1351.9.1-1.4.1-.6c2.9-12.7 35-25.4 77.8-29.2V1823.3m-78 1408v1V3231.3"/><path fill="#c2c1c1" d="M4381.7 3202.4c-37.5 4.8-64.8 16.4-67.5 28.1 2.6-11.6 30-23.3 67.5-28m-67.6 28.6v1-1"/><path fill="#31346a" d="M4314.2 3230.5v.6-.5"/><path fill="#4e54a2" d="M4392 3178.6c-42.8 3.7-75 16.4-77.8 29.1v.6l-.2 1.4v22.4a10.2 10.2 0 0 1 .2-1.6c2.7-11.7 30-23.3 67.5-28h.5l.2-.1h.2l9.4-1v-22.8"/><path fill="#e9e9e9" d="M4314 3232.3v.2-.2m0 .1v.1"/><path fill="#575fc1" d="M4314 3232.3v.2-.2"/><path fill="#c2c1c1" d="M4314 3232.5"/><path fill="#4e54a2" d="M4314 3232.5"/></g><path fill="#5d66d3" d="M717.2 644.6c-13.5-2-37.4-2.9-70 2.2-6.2.8-17 3-22.6 4.2a4.5 4.5 0 0 0-3.6 4.5v37c0 2.9 2.7 5 5.5 4.4 13.2-2.9 27.5-6.9 43.9-7.9 14-.8 28-1.3 49 1.6 2.7.4 5.2-1.8 5.2-4.5v-36.5c0-2.2-1.6-4.1-3.8-4.5l-3.6-.5"/><path fill="#b97262" d="M461.7 719.2c.1-.5.3-1 .2-1.6-.2-4.8-3.2-7.1-4.8-11.7-.6-2 2.8-6.3-1.6-7.4-4.5-1.1-13.2-.4-16.2-4.5-1.3-1.8-3-4.2-5.2-3.7-.8.2-1.4.8-2 1.3-18.3 17.8-.4 39.2 19.6 38.5 1.7 0 2.9 0 4.2-.8 2.3-1.3 3.3-3.7 4.3-6 .7-1.3 1.2-2.7 1.5-4"/><path fill="#fff" d="M426.5 722.4c-4.6 2-10.2 0-13.3-3.8-3.1-3.9-4-9.2-3.2-14 .8-5 3.1-9.4 5.8-13.6 3.2-4.9 7.3-9.6 12.7-11.6 3-1.2 6.4-1.5 9.7-1.5 2.2-.1 4.6 0 6.2 1.6a8.1 8.1 0 0 1 2 4.2c2.1 10 .4 11.5-6.2 18.1a79 79 0 0 0-13.7 20.6"/><path fill="#efbfa5" d="M912.3 354.3a5 5 0 0 1-1.1-.8c-2.6-3-2-5.7-3.5-9-.7-1.6-5.4-2.5-3.2-5.2.8-1 3.2-3 5-5.1 3.2-3.8.2-9.2 3.6-13.4 2.9-3.6 13.3-7 17-1.7 1.3 2-.6 5.2-.3 7.4.5 3.3 3.2 5.5 4.4 8.6 1 2.8 1.6 6.6 1.5 9.4-.3 5.6-6 8.6-10.6 11.6-1.2.7-2 1.2-3.3 1.4-2.2.3-4.2-.6-6.2-1.4-1.2-.5-2.3-1.1-3.3-1.8"/><path fill="#8cabef" d="M942.1 338.3c4.4-2 6.6-7.4 5.8-12.2-.8-4.8-4.1-8.8-8.2-11.4-4.1-2.6-9-3.8-13.7-4.5-5.7-.8-11.8-1-16.8 1.7a28.1 28.1 0 0 0-7.4 6.1c-1.4 1.6-3 3.5-2.8 5.6 0 1.6 1 3 1.8 4.2 6 8.1 8.2 7.8 17.3 7.3 8.1-.4 16.2 1.2 24 3.2"/><path fill="#efbfa5" d="M712 346.2a5 5 0 0 0 1.1-.6c3-2.5 3-5.3 5-8.4 1-1.4 5.8-1.6 4-4.5-.6-1.1-2.7-3.6-4-6-2.7-4.1 1.2-9-1.4-13.7-2.3-4-12-9-16.5-4.4-1.7 1.7-.3 5.2-1 7.3-1 3.2-4 5-5.7 7.8a24.5 24.5 0 0 0-3 9c-.6 5.6 4.5 9.4 8.5 13.1 1 1 1.7 1.6 3 2 2.2.6 4.3 0 6.4-.4l3.6-1.2"/><path fill="#8cabef" d="M685.1 325.5c-4-2.7-5.2-8.4-3.7-13 1.6-4.5 5.6-8 10-9.9 4.5-1.8 9.4-2.3 14.3-2.2 5.7.2 11.7 1 16.3 4.5a28 28 0 0 1 6.2 7.2c1.2 1.8 2.3 4 1.9 6a8 8 0 0 1-2.5 3.8c-7.2 7-9.3 6.4-18.2 4.4-8-1.8-16.2-1.5-24.3-.8"/></svg>