<svg xmlns="http://www.w3.org/2000/svg" xml:space="preserve" viewBox="0 0 512 512"><path fill="#e5e5e5" d="M405.5 436.2H165.9c-8.8 0-16-7.1-16-15.9V53.5c0-8.7 7.2-15.9 16-15.9h239.6c8.7 0 15.9 7.1 15.9 16v366.7c0 8.8-7.2 16-16 16z"/><g fill="#b2b2b2"><path d="M396.7 352.3c-32 0-59 28.7-59 62.7 0 6.8 1.4 13.8 4.4 21.2h63.4c8.7 0 15.9-7.1 15.9-15.9v-62c-7.7-3.9-16-6-24.7-6zM421.4 53.5c0-8.7-7.2-15.9-16-15.9H166c-8.8 0-16 7.1-16 16v16.2h271.5V53.5z"/></g><g fill="#fb9d46"><path d="M268.7 8h33.9v80.6h-33.9zM345 8h33.9v80.6H345zM192.4 8h33.9v80.6h-33.9z"/></g><path fill="#e24642" d="M425.6 381c-29.7-29.6-72-3.5-72 34s72 89 72 89 72-51.5 72-89-42.3-63.6-72-34z"/><circle cx="462.7" cy="409.7" r="15.9" fill="#fb9d46"/><path fill="#c42725" d="M379 400.3c0-12.2 4.5-23.3 11.6-31.5a46.5 46.5 0 0 0-37 46.2c0 37.5 72 89 72 89s9.6-6.8 21.8-17.4c-14.6-11-68.4-54-68.4-86.3z"/><path fill="#ffd652" d="M48.2 63.1H116v373.1H48.2z"/><path fill="#fb9d46" d="m82.2 478.6 33.9-42.4H48.2z"/><path fill="#458fde" d="M82.2 8A34 34 0 0 1 116 41.9v152.6H48.2V42a34 34 0 0 1 34-34z"/><circle cx="89.6" cy="36.6" r="11.7" fill="#89dcfc"/><path fill="#fb9d46" d="M48.2 63.1h23.3v373.1H48.2z"/><path fill="#4f5aa8" d="M93.8 10A33.8 33.8 0 0 0 48.2 42v152.6h23.4V42A34 34 0 0 1 93.8 10z"/><path d="M379 156.9H268.7a8 8 0 1 0 0 15.9H379a8 8 0 0 0 0-16zM379 241.7H268.7a8 8 0 1 0 0 15.9H379a8 8 0 0 0 0-16zM379 326.5H268.7a8 8 0 1 0 0 15.9H379a8 8 0 0 0 0-16zM234.3 147.9a8 8 0 0 0-8-8h-33.9a8 8 0 0 0-8 8v33.9a8 8 0 0 0 8 8h34a8 8 0 0 0 7.9-8v-34zm-16 26h-18v-18h18v18zM234.3 232.7a8 8 0 0 0-8-8h-33.9a8 8 0 0 0-8 8v33.9a8 8 0 0 0 8 8h34a8 8 0 0 0 7.9-8v-34zm-16 26h-18v-18h18v18zM226.3 309.5h-33.9a8 8 0 0 0-8 8v33.9a8 8 0 0 0 8 8h34a8 8 0 0 0 7.9-8v-34a8 8 0 0 0-8-7.9zm-8 34h-18v-18h18v18z"/><path d="M472.4 364c-14.5-6-30-4.5-43 4V133a8 8 0 1 0-16 0v230.6c-12-4.7-25-4.4-37 1.4a55.4 55.4 0 0 0-30.8 50c0 4.2.7 8.6 2.2 13.3H165.9a8 8 0 0 1-8-8V53.5a8 8 0 0 1 8-8h18.5v43a8 8 0 0 0 8 8h34a8 8 0 0 0 7.9-8v-43h26.5v43a8 8 0 0 0 8 8h33.8a8 8 0 0 0 8-8v-43H337v43a8 8 0 0 0 8 8H379a8 8 0 0 0 8-8v-43h18.5a8 8 0 0 1 8 8v35a8 8 0 1 0 15.8 0v-35a23.9 23.9 0 0 0-23.8-23.8h-18.6V7.9a8 8 0 0 0-8-7.9H345a8 8 0 0 0-8 8v21.7h-26.4V7.9a8 8 0 0 0-8-7.9h-33.9a8 8 0 0 0-8 8v21.7h-26.4V7.9a8 8 0 0 0-8-7.9h-33.9a8 8 0 0 0-8 8v21.7H166A23.9 23.9 0 0 0 142 53.5v366.8a23.9 23.9 0 0 0 23.9 23.9H355c19.7 33 64 65 66 66.3a8 8 0 0 0 9.2 0c.8-.5 18.8-13.4 37-31.2 25.5-25 38.4-46.5 38.4-64.3a55.4 55.4 0 0 0-33.2-51zM353 15.8h18v64.7h-18V15.9zm-76.3 0h18v64.7h-18V15.9zm-76.4 0h18v64.7h-18V15.9zm225.3 478.2c-12.2-9.3-45.6-36.3-58.9-61.6a39 39 0 0 1-5.2-17.5c0-15.3 8.5-29.3 21.7-35.6a30.4 30.4 0 0 1 33.2 4.1l3.6 3.2a8 8 0 0 0 11.2 0c10.2-10.2 23-13.1 35-8.1a39.4 39.4 0 0 1 23.5 36.4c0 25.4-42.6 62.9-64 79.1zM82.2 0a42 42 0 0 0-41.7 38.2H30.2A23.9 23.9 0 0 0 6.4 62v132.5a8 8 0 1 0 15.9 0V62a8 8 0 0 1 8-8h10v229.5a8 8 0 1 0 15.9 0v-81h52v225.8h-52V323.8a8 8 0 1 0-16 0v112.4a8 8 0 0 0 1.8 5l32.2 40.2V504a8 8 0 1 0 15.9 0v-22.6l32.2-40.2a8 8 0 0 0 1.7-5V42A42 42 0 0 0 82.2 0zm-26 41.9a26 26 0 0 1 52 0v144.7h-52V41.9zm26 424-17.4-21.7h34.7l-17.3 21.7z"/></svg>